<?xml version="1.0" encoding="utf-8"?>
<!-- Generator: Adobe Illustrator 17.0.1, SVG Export Plug-In . SVG Version: 6.00 Build 0)  -->
<!DOCTYPE svg PUBLIC "-//W3C//DTD SVG 1.1//EN" "http://www.w3.org/Graphics/SVG/1.1/DTD/svg11.dtd">
<svg version="1.1" id="Layer_1" xmlns="http://www.w3.org/2000/svg" xmlns:xlink="http://www.w3.org/1999/xlink" x="0px" y="0px"
	 width="245.333px" height="64.667px" viewBox="0 0 245.333 64.667" enable-background="new 0 0 245.333 64.667"
	 xml:space="preserve">
<g>
	<path fill="#59595B" d="M78.16,33.078v4.328h2.717v-8.083h-3.791c-1.251,0-2.146-1.036-2.146-2.11v-9.479
		c0-1.251,0.859-2.145,2.146-2.145h4.863c1.218,0,2.146,0.894,2.146,2.111v5.256h-3.219v-4.148H78.16v7.298h3.789
		c1.218,0,2.146,0.997,2.146,2.144v10.265c0,1.144-0.965,2.11-2.146,2.11h-4.863c-1.145,0-2.146-0.966-2.146-2.11v-5.438H78.16z"/>
	<path fill="#59595B" d="M94.908,23.099v-4.291h-2.716v18.598h2.716v-4.328h3.222v5.438c0,1.144-0.968,2.11-2.147,2.11h-4.864
		c-1.144,0-2.146-0.966-2.146-2.11V17.734c0-1.142,1.003-2.145,2.146-2.145h4.864c1.216,0,2.147,1.003,2.147,2.145v5.365H94.908z"/>
	<path fill="#59595B" d="M102.504,17.734c0-1.142,1.001-2.145,2.145-2.145h4.866c1.214,0,2.145,1.003,2.145,2.145v20.781
		c0,1.144-0.967,2.11-2.145,2.11h-4.866c-1.144,0-2.145-0.966-2.145-2.11V17.734z M108.441,18.808h-2.719v18.598h2.719V18.808z"/>
	<path fill="#59595B" d="M118.323,18.808h-2.86v-3.219h8.941v3.219h-2.862v21.817h-3.219V18.808z"/>
	<path fill="#59595B" d="M129.994,18.808h-2.859v-3.219h8.94v3.219h-2.861v21.817h-3.22V18.808z"/>
	<path fill="#59595B" d="M144.8,15.589h7.009c1.216,0,2.146,1.003,2.146,2.145v20.781c0,1.144-0.965,2.11-2.146,2.11H144.8V15.589z
		 M150.737,18.808h-2.719v18.598h2.719V18.808z"/>
	<path fill="#59595B" d="M164.768,30.004h-2.718v10.621h-3.218V15.589h6.616c1.217,0,2.146,1.003,2.146,2.145v8.728
		c0,0.894-0.466,1.573-1.108,1.753c0.965,0.212,1.501,1.215,1.501,2.108v10.302h-3.219V30.004z M162.05,26.784h2.324v-7.976h-2.324
		V26.784z"/>
	<path fill="#59595B" d="M172.685,15.589h3.217v25.036h-3.217V15.589z"/>
	<path fill="#59595B" d="M186.716,23.099v-4.291H184v18.598h2.716v-4.328h3.22v5.438c0,1.144-0.966,2.11-2.145,2.11h-4.866
		c-1.145,0-2.146-0.966-2.146-2.11V17.734c0-1.142,1.002-2.145,2.146-2.145h4.866c1.213,0,2.145,1.003,2.145,2.145v5.365H186.716z"
		/>
	<path fill="#59595B" d="M197.53,15.589v9.406l2.504-9.406h3.399l-3.399,11.624l3.791,13.412h-3.326l-2.969-10.946v10.946h-3.217
		V15.589H197.53z"/>
	<path fill="#59595B" d="M215.747,40.625h-8.298V15.589h8.047v3.219h-4.828v6.902h3.398v3.22h-3.398v8.476h5.079V40.625z"/>
	<path fill="#59595B" d="M222.733,32.4l-3.864-16.811h3.328l2.145,11.804l2.146-11.804h3.327L225.952,32.4v8.225h-3.219V32.4z"/>
	<path fill="#74B8AF" d="M80.387,51.719h-2.351v1.96h-1.43v-5.715h3.756c1.104,0,2.099,0.597,2.099,1.876
		C82.461,51.044,81.432,51.719,80.387,51.719z M80.315,49.191h-2.279v1.307h2.302c0.377,0,0.695-0.254,0.695-0.657
		C81.033,49.417,80.722,49.191,80.315,49.191z"/>
	<path fill="#74B8AF" d="M91.065,53.68v-2.293h-3.208v2.293h-1.471v-5.715h1.471v2.196h3.208v-2.196h1.47v5.715H91.065z"/>
	<path fill="#74B8AF" d="M99.973,53.803c-1.886,0-3.43-0.945-3.43-2.99c0-2.031,1.561-2.971,3.43-2.971
		c1.878,0,3.446,0.931,3.446,2.971C103.419,52.867,101.859,53.803,99.973,53.803z M99.973,49.083c-1.145,0-1.984,0.5-1.984,1.73
		c0,1.236,0.839,1.749,1.984,1.749c1.144,0,1.993-0.513,1.993-1.749C101.965,49.582,101.109,49.083,99.973,49.083z"/>
	<path fill="#74B8AF" d="M110.528,49.191v4.489h-1.469v-4.489h-2.247v-1.226h5.964v1.226H110.528z"/>
	<path fill="#74B8AF" d="M119.599,53.803c-1.887,0-3.429-0.945-3.429-2.99c0-2.031,1.559-2.971,3.429-2.971
		c1.877,0,3.446,0.931,3.446,2.971C123.045,52.867,121.483,53.803,119.599,53.803z M119.599,49.083c-1.144,0-1.986,0.5-1.986,1.73
		c0,1.236,0.842,1.749,1.986,1.749c1.142,0,1.992-0.513,1.992-1.749C121.591,49.582,120.733,49.083,119.599,49.083z"/>
	<path fill="#74B8AF" d="M131.902,53.68v-0.333c-0.416,0.341-1.152,0.432-1.673,0.432c-1.896,0-3.422-0.906-3.422-2.966
		c0-2.055,1.536-2.946,3.422-2.946c1.28,0,2.417,0.366,2.946,1.641l-1.413,0.343c-0.294-0.639-0.891-0.761-1.526-0.761
		c-1.12,0-1.969,0.507-1.969,1.723c0,1.22,0.842,1.741,1.969,1.741c0.579,0,1.199-0.066,1.665-0.441v-0.606h-1.765v-1.182h3.194
		v3.355H131.902z"/>
	<path fill="#74B8AF" d="M142.082,53.68l-1.322-1.96h-1.83v1.96h-1.428v-5.715h3.919c1.159,0,2.097,0.645,2.097,1.876
		c0,0.802-0.473,1.432-1.208,1.717l1.447,2.122H142.082z M141.374,49.191h-2.444v1.307h2.466c0.385,0,0.695-0.264,0.695-0.657
		C142.091,49.417,141.773,49.191,141.374,49.191z"/>
	<path fill="#74B8AF" d="M152.588,53.68l-0.58-1.222h-2.711l-0.579,1.222h-1.608l2.792-5.715h1.51l2.785,5.715H152.588z
		 M150.663,49.451l-0.835,1.804h1.649L150.663,49.451z"/>
	<path fill="#74B8AF" d="M161.74,51.719h-2.352v1.96h-1.429v-5.715h3.755c1.104,0,2.099,0.597,2.099,1.876
		C163.813,51.044,162.785,51.719,161.74,51.719z M161.666,49.191h-2.277v1.307h2.303c0.374,0,0.694-0.254,0.694-0.657
		C162.386,49.417,162.074,49.191,161.666,49.191z"/>
	<path fill="#74B8AF" d="M172.418,53.68v-2.293h-3.208v2.293h-1.471v-5.715h1.471v2.196h3.208v-2.196h1.47v5.715H172.418z"/>
	<path fill="#74B8AF" d="M181.677,51.574v2.106h-1.43v-2.106l-2.596-3.609h1.665l1.65,2.367l1.633-2.367h1.665L181.677,51.574z"/>
	<path fill="#74B8AF" d="M22.521,29.03c-0.256,1.061-0.396,2.166-0.396,3.304c0,2.712,0.777,5.246,2.116,7.397l6.233-10.796
		L22.521,29.03z M32.093,18.903c-3.766,1.143-6.869,3.829-8.565,7.32l12.704-0.152L32.093,18.903z M45.773,22.13
		c-2.513-2.372-5.897-3.828-9.616-3.828c-0.389,0-0.774,0.019-1.153,0.053l6.475,11.212L45.773,22.13z M26.098,42.104
		c2.552,2.626,6.117,4.262,10.059,4.262c0.14,0,0.278-0.005,0.417-0.01l-6.465-11.199L26.098,42.104z M39.566,45.984
		c3.972-0.993,7.277-3.666,9.098-7.261H35.373L39.566,45.984z M41.057,35.929h8.675c0.296-0.8,0.458-2.388,0.458-3.616
		c0-2.952-0.92-5.605-2.486-7.869L41.057,35.929z"/>
	<path fill="#59595B" d="M63.807,30.006l-2.883-1.021l-4.604-1.625c-0.473-1.923-1.216-3.742-2.181-5.412l1.578-3.303
		c-1.601-2.282-3.59-4.271-5.871-5.872l-3.304,1.579c-1.678-0.971-3.501-1.714-5.433-2.188l-1.604-4.544l-1.04-2.941
		c-0.762-0.063-1.53-0.102-2.307-0.102c-0.777,0-1.544,0.038-2.306,0.102L32.81,7.621l-1.603,4.544
		c-1.932,0.474-3.758,1.217-5.435,2.188l-3.304-1.579c-2.282,1.601-4.27,3.589-5.871,5.872l1.579,3.303
		c-0.968,1.67-1.709,3.488-2.184,5.412l-4.602,1.625l-2.884,1.021c-0.065,0.768-0.105,1.542-0.105,2.328
		c0,0.783,0.04,1.558,0.105,2.324l2.884,1.022l4.602,1.625c0.474,1.926,1.216,3.743,2.184,5.415l-1.579,3.305
		c1.601,2.279,3.589,4.268,5.872,5.87l3.303-1.579c1.671,0.968,3.488,1.709,5.412,2.182L32.81,57.1l1.021,2.883
		c0.768,0.065,1.542,0.105,2.326,0.105c0.784,0,1.559-0.04,2.326-0.105l1.021-2.883l1.625-4.604
		c1.925-0.474,3.742-1.215,5.415-2.183l3.301,1.578c2.283-1.601,4.27-3.588,5.871-5.87l-1.578-3.304
		c0.967-1.671,1.708-3.488,2.182-5.413l4.603-1.625l2.883-1.021c0.065-0.768,0.104-1.542,0.104-2.325
		C63.911,31.548,63.872,30.774,63.807,30.006z M36.157,49.821c-4.833,0-9.202-1.956-12.368-5.118
		c-3.163-3.168-5.12-7.541-5.12-12.37c0-9.661,7.827-17.492,17.488-17.492c4.832,0,9.2,1.956,12.369,5.123
		c3.167,3.163,5.124,7.539,5.124,12.369C53.649,41.993,45.817,49.821,36.157,49.821z"/>
</g>
</svg>
