<?xml version="1.0" encoding="utf-8"?>
<!-- Generator: Adobe Illustrator 17.0.1, SVG Export Plug-In . SVG Version: 6.00 Build 0)  -->
<!DOCTYPE svg PUBLIC "-//W3C//DTD SVG 1.1//EN" "http://www.w3.org/Graphics/SVG/1.1/DTD/svg11.dtd">
<svg version="1.1" id="Layer_1" xmlns="http://www.w3.org/2000/svg" xmlns:xlink="http://www.w3.org/1999/xlink" x="0px" y="0px"
	 width="115px" height="115.333px" viewBox="0 0 115 115.333" enable-background="new 0 0 115 115.333" xml:space="preserve">
<path fill="#5A5A56" d="M29.952,51.057c-0.514,2.124-0.793,4.333-0.793,6.61c0,5.428,1.555,10.498,4.233,14.803l12.473-21.604
	L29.952,51.057z M49.105,30.793c-7.537,2.286-13.746,7.661-17.14,14.646l25.42-0.305L49.105,30.793z M76.478,37.249
	c-5.028-4.745-11.798-7.662-19.242-7.662c-0.776,0-1.546,0.041-2.306,0.106l12.957,22.439L76.478,37.249z M37.11,77.216
	c5.106,5.254,12.239,8.53,20.127,8.53c0.282,0,0.558-0.011,0.835-0.02L45.135,63.318L37.11,77.216z M64.058,84.983
	c7.95-1.988,14.562-7.336,18.205-14.53H55.669L64.058,84.983z M67.042,64.86h17.359c0.592-1.598,0.916-4.776,0.916-7.232
	c0-5.909-1.842-11.219-4.973-15.746L67.042,64.86z"/>
<path opacity="0.5" fill="none" stroke="#6C6963" stroke-width="2" stroke-miterlimit="10" d="M112.567,53.01l-5.769-2.043
	l-9.215-3.251c-0.946-3.849-2.432-7.487-4.364-10.831l3.158-6.607c-3.203-4.568-7.182-8.546-11.749-11.75l-6.61,3.159
	c-3.357-1.943-7.008-3.431-10.871-4.377l-3.211-9.095l-2.081-5.882c-1.524-0.126-3.062-0.205-4.618-0.205
	c-1.554,0-3.088,0.079-4.613,0.205l-2.083,5.882l-3.21,9.095c-3.865,0.946-7.519,2.434-10.874,4.377l-6.61-3.159
	c-4.568,3.204-8.545,7.182-11.748,11.75l3.159,6.609c-1.937,3.342-3.421,6.98-4.368,10.829l-9.208,3.251L1.907,53.01
	c-0.13,1.536-0.211,3.085-0.211,4.657c0,1.567,0.081,3.116,0.211,4.65l5.774,2.044l9.208,3.251
	c0.947,3.854,2.431,7.492,4.368,10.836L18.1,85.061c3.201,4.563,7.181,8.542,11.749,11.746l6.608-3.159
	c3.345,1.937,6.98,3.42,10.83,4.367l3.254,9.211l2.042,5.771c1.537,0.128,3.086,0.21,4.654,0.21c1.57,0,3.12-0.082,4.657-0.21
	l2.042-5.771l3.252-9.211c3.853-0.949,7.488-2.433,10.835-4.369l6.606,3.157c4.569-3.202,8.546-7.179,11.749-11.747l-3.158-6.61
	c1.936-3.345,3.418-6.98,4.369-10.833l9.21-3.251l5.769-2.042c0.13-1.536,0.209-3.086,0.209-4.653
	C112.776,56.096,112.697,54.546,112.567,53.01z M57.237,92.661c-9.67,0-18.413-3.914-24.749-10.243
	c-6.331-6.336-10.247-15.087-10.247-24.751c0-19.33,15.664-35.002,34.995-35.002c9.668,0,18.412,3.916,24.752,10.252
	c6.336,6.33,10.251,15.087,10.251,24.75C92.239,76.996,76.568,92.661,57.237,92.661z"/>
</svg>
