<?xml version="1.0" encoding="utf-8"?>
<!-- Generator: Adobe Illustrator 17.0.1, SVG Export Plug-In . SVG Version: 6.00 Build 0)  -->
<!DOCTYPE svg PUBLIC "-//W3C//DTD SVG 1.1//EN" "http://www.w3.org/Graphics/SVG/1.1/DTD/svg11.dtd">
<svg version="1.1" id="Layer_1" xmlns="http://www.w3.org/2000/svg" xmlns:xlink="http://www.w3.org/1999/xlink" x="0px" y="0px"
	 width="79.5px" height="53.536px" viewBox="0 0 79.5 53.536" enable-background="new 0 0 79.5 53.536" xml:space="preserve">
<path fill="none" stroke="#908F8F" stroke-miterlimit="10" d="M78.152,10.234c0.177-0.735-1.279-2.085-1.492-3.068
	c-0.319-1.476-2.395-1.102-2.525,0.195c-0.066,0.654-0.075,1.365-0.246,2.003c-0.132,0.492-1.009,1.518-1.03,1.731
	c-0.065,0.642-2.821,1.083-3.205,1.17c-1.501,0.341-1.508,0.639-2.372,1.829c-0.345,0.475,0.086,1.389-0.668,1.584
	c-0.484,0.462-1.557,0.705-2.171,0.984c-1.043,0.473-0.132,0.832-0.97,1.468c-0.69,0.523-1.379,1.047-2.069,1.57
	c-0.362,0.275-0.854,0.82-1.288,0.978c-1.196,0.659-2.26-0.768-1.533-1.001c1.035-0.332,0.484-1.801,0.23-2.455
	c-0.518-1.331-1.339,0.066-1.622-0.31c-0.966-1.281,1.584-2.195-0.474-3.431c-1.736-0.565-1.208,1.17-1.93,1.484
	c-0.559,0.243-1.054,0.809-1.187,2.028c-0.024,0.363,0.16,4.132-0.587,3.992c-0.995-0.185,0.102-5.877-0.575-6.154
	c0.006,0.002-0.764,0.707-0.766,0.701c-0.279-0.789,1.152-2.172,1.739-2.313c0.291-0.07,3.025-0.584,2.955-0.644
	c-1.652-1.41-4.395-0.575-5.786-1.891c-0.163-0.154-1.781,1.422-3.104,1.539c-0.006,0.001-1.57,0.001-1.102-0.597
	c-0.019-0.754,2.307-1.326,2.25-1.815c-0.031-0.264-5.179-0.894-5.663-1.271c-1.377-1.07-0.368-0.239-1.927-0.448
	c-0.247-0.033-0.495-0.066-0.742-0.099C36.598,7.5,32.906,7.006,29.215,6.512c-4.884-0.654-9.768-1.307-14.652-1.961
	c-1.585-0.212-3.17-0.424-4.755-0.636c-0.35-0.047-0.7-0.094-1.05-0.14C7.462,3.602,8.49,4.721,8.145,5.25
	C7.927,5.584,5.056,2.889,5.394,5.357c0.19,1.387-0.091,2.654-0.665,3.888c-0.697,1.499-1.539,2.992-2.103,4.547
	c-0.52,1.435-1.346,4.313-1.268,5.784c0.104,1.966,1.019,3.674,1.364,5.613c0.462,0.591,0.276,1.605,0.624,2.349
	c0.381,0.815,0.345,2.98,1.066,3.523c0.424,0.415,1.349,0.317,1.823,0.68c0.47,0.631,0.934,1.392,1.299,2.098
	c0.528,1.023,2.704,2.658,4.074,2.019c0.058-0.027,4.816,3.11,5.564,3.329c1.087,0.318,2.207,0.529,3.328,0.688
	c0.939,0.133,1.196-0.711,2.086-0.605c1.543,0.183,3.459,1.345,3.959,2.977c0.48,0.991,0.365,1.79,1.442,2.42
	c0.954,0.558,1.325-0.234,2.227-0.511c0.933-1.277,3.108,1.819,3.513,2.561c0.874,1.599,2.698,2.934,4.008,4.18
	c1.1,1.046,0.576-3.051,1.476-3.514c0.849-0.956,3.202-2.605,4.538-2.71c1.206-0.28,2.62-0.245,3.735-0.216
	c0.456,0.012,1.451,0.544,2.389,0.48c0.299-0.021,1.74,0.033,2.037-0.229c-0.275,0.242-0.614-1.302-0.629-1.328
	c-0.153-0.26,2.425-1.484,2.657-1.133c0.443,0.67,2.735,0.687,3.503,0.761c0.56,0.197,1.383,0.221,1.835-0.238
	c0.311-0.316,1.607,0.214,2.017,0.301c0.726,0.154,2.713,5.29,3.097,5.516c0.456,0.268,0.606,0.907,1.084,1.197
	c0.3,0.182,1.344,0.6,1.507,0.763c0,0,0.687-0.507,0.718-0.685c0.04-0.226-0.657-1.977-0.729-2.299
	c-0.411-1.834-0.896-3.141-1.808-4.757c-0.704-1.246-1.344-2.859-0.848-4.293c0.434-1.254,1.421-1.538,2.134-2.403
	c0.975-1.383,1.135-1.768,2.563-2.706c0.595-0.583,1.612-1.2,1.298-2.046c-0.291-0.785,0.632-1.31,0.65-1.317
	c0.28-0.107-0.064-1.15-0.341-1.608c-0.651-1.078-0.446-1.175-1.386-1.875c-0.671-0.5-0.129-3.043-0.129-3.043
	s1.097,3.23,1.289,3.41c0.344,0.322,0.038-3.62-0.367-4.04c1.784,1.848,1.291-2.524,1.43-2.646c0.604-0.53,2.975-3.019,3.861-2.838
	c0.228,0.135,0.235,0.231,0.023,0.288c2.066-1.349-0.512-1.069-0.542-2.274c-0.246-0.692,1.303-3.932,1.774-3.799
	c0.246,0.07-0.094,0.381,0.001,0.461C76.831,12.293,78.017,10.471,78.152,10.234z"/>
<path fill="#5A5A5C" d="M33.494,25.641c0.005,0.006-0.106,1.391-0.14,1.842c2.117,0.187,9.316,0.472,9.316,0.472
	c0.137,0.003,0.243-0.005,0.234-0.016c0,0,0,0-0.008-0.01c-0.041-0.054-0.132-0.049-0.142-0.062
	c-0.019-0.024-0.082-0.336-0.069-0.37l0,0c-0.01-0.013-0.257-0.15-0.259-0.156c-0.002-0.003-0.007-0.206-0.022-0.246
	c-0.055-0.147-0.205-0.711-0.203-0.803c0.001-0.136-0.068-0.221-0.09-0.34c-0.006-0.033-0.017-0.651-0.038-0.71
	c-0.011-0.031-0.277-0.351-0.249-0.435c0.022-0.063,0.063-0.136,0.05-0.215c-0.012-0.067-0.093-0.297-0.11-0.341
	c-0.021-0.051-0.247-0.326-0.269-0.375c-0.025-0.056,0.04-0.131,0.026-0.185c-0.014-0.057-0.101-0.099-0.111-0.156
	c-0.009-0.049,0.04-0.134,0.049-0.184c0.008-0.048,0.008-0.048,0.008-0.048c-0.066-0.025-0.189-0.041-0.273-0.035
	c0,0-0.833-0.637-0.9-0.685c-0.116-0.084-0.779-0.035-0.815-0.027c-0.122,0.025-0.03,0.153-0.21,0.147
	c-0.083-0.003-0.595-0.411-0.64-0.428c-0.017-0.006-5.103-0.321-7.507-0.594c-0.132,1.227-0.264,2.454-0.396,3.68
	c0.691,0.079,1.383,0.151,2.076,0.217"/>
</svg>
